HIERARCHY
ROOT Spine
{
    OFFSET 0.0 0.0 -0.0
    CHANNELS 6 Xposition Yposition Zposition Zrotation Xrotation Yrotation
    JOINT ShoulderCenter
    {
        OFFSET 0.0 0.2362511157989502 0.0
        CHANNELS 3 Zrotation Xrotation Yrotation
        JOINT LeftShoulder
        {
            OFFSET 0.1681962013244629 0.0 0.0
            CHANNELS 3 Zrotation Xrotation Yrotation
            JOINT LeftElbow
            {
                OFFSET 0.22011320292949677 0.0 0.0
                CHANNELS 3 Zrotation Xrotation Yrotation
                JOINT LeftHand
                {
                    OFFSET 0.2664255201816559 0.0 0.0
                    CHANNELS 3 Zrotation Xrotation Yrotation
                    End Site
                    {
                        OFFSET 0.10657022893428802 0.0 0.0
                    }
                }
            }
        }
        JOINT RightShoulder
        {
            OFFSET -0.1681962013244629 0.0 0.0
            CHANNELS 3 Zrotation Xrotation Yrotation
            JOINT RightElbow
            {
                OFFSET -0.22011320292949677 0.0 0.0
                CHANNELS 3 Zrotation Xrotation Yrotation
                JOINT RightHand
                {
                    OFFSET -0.2664255201816559 0.0 0.0
                    CHANNELS 3 Zrotation Xrotation Yrotation
                    End Site
                    {
                        OFFSET -0.10657022893428802 0.0 0.0
                    }
                }
            }
        }
        End Site
        {
            OFFSET 0.0 0.09450045973062515 0.0
        }
    }
    JOINT LeftHip
    {
        OFFSET 0.22492007097311537 -0.22492007097311537 0.0
        CHANNELS 3 Zrotation Xrotation Yrotation
        JOINT LeftKnee
        {
            OFFSET 0.0 -0.3235723078250885 0.0
            CHANNELS 3 Zrotation Xrotation Yrotation
            JOINT LeftFoot
            {
                OFFSET 0.0 -0.3921419382095337 0.0
                CHANNELS 3 Zrotation Xrotation Yrotation
                End Site
                {
                    OFFSET 0.0 0.0 0.15685676038265228
                }
            }
        }
    }
    JOINT RightHip
    {
        OFFSET -0.22492007097311537 -0.22492007097311537 0.0
        CHANNELS 3 Zrotation Xrotation Yrotation
        JOINT RightKnee
        {
            OFFSET 0.0 -0.3235723078250885 0.0
            CHANNELS 3 Zrotation Xrotation Yrotation
            JOINT RightFoot
            {
                OFFSET 0.0 -0.3921419382095337 0.0
                CHANNELS 3 Zrotation Xrotation Yrotation
                End Site
                {
                    OFFSET 0.0 0.0 0.15685676038265228
                }
            }
        }
    }
}
MOTION
Frames: 9
Frame Time: 0.03333333333333333
-0.46717721223831177 0.22525019943714142 3.272747039794922 3.218297444137213 -15.382331527510592 126.98452933404275 8.143009638770447e-07 -3.7306220206297513e-07 -2.0173775140680856 113.91470771644305 -41.82481728207252 -178.95521923921973 3.7180333055779092e-06 2.965739097307462e-06 106.96950248053851 0.0 0.0 0.0 -98.2251217835342 -31.277277538722164 172.67058304795208 5.994524201778842e-06 1.8233947048577945e-06 -104.87655488836059 -6.361109362927035e-15 6.361109362927035e-15 6.361109362927035e-15 15.646258723540805 5.917050290427624 -75.18700105829816 10.82555909534529 -16.070036307416686 84.71122201018436 7.951386703658792e-16 7.951386703658792e-16 2.882377680076312e-15 -1.8996564703562864 4.015888885655686 67.3190238309096 6.241973307922082 -3.8771437134986013 -12.59476306403352 -1.1430118386509513e-15 0.0 0.0
-0.46931758522987366 0.22471679747104645 3.2685539722442627 3.3160251912848406 -15.202703434463725 126.46529714173198 1.1233988435299758e-07 -1.6197068850854608e-06 -1.5144609347066698 113.41442394692227 -41.389574525077165 -178.96371971675634 -3.461009174048427e-06 -3.876012911166898e-06 107.2159910334486 0.0 6.3548973420648e-15 0.0 -97.49914981400087 -26.190725814781967 173.2152626762388 1.063788217988859e-06 2.810402138574491e-06 -102.93432449616732 -9.54166404439055e-15 5.29668755766019e-31 -6.3611093629270335e-15 14.764884305344223 6.788564766302271 -71.22268413205317 10.629432778107306 -16.50013577512325 80.07316384866178 6.551892161168204e-32 1.5902773407317584e-15 -4.721135855297408e-15 -2.168671604679701 4.109634554450368 68.1405859041624 6.444018092513887 -3.2222842392299076 -10.362610004333742 -3.478731682850721e-16 -3.1805546814635164e-15 1.9878466759146977e-16
-0.47088220715522766 0.22472059726715088 3.264657974243164 3.6498364375460506 -15.339825253243662 126.76879278383385 -3.686076755883353e-07 2.89339134926571e-07 -1.8532515479372718 113.72207183543293 -36.92630967011462 -179.0711409427199 -4.7606116197892675e-06 -5.67699595301751e-08 109.55836940715281 1.5902773407317584e-15 0.0 0.0 -98.01742192668867 -32.85290634446405 172.957913962499 -6.683220976408117e-07 1.3259906229795224e-06 -100.6905592443833 -3.1805546814635164e-15 6.3611093629270335e-15 -6.3611093629270335e-15 15.56936647479585 7.041735645472924 -75.24066030002203 11.484528837602394 -16.876796351516667 83.20587755222161 0.0 0.0 -2.3854160110976376e-15 -1.7299638637565833 4.28784376975962 67.2238057301894 6.433636774436671 -2.503799445237565 -7.965150727543121 5.963540027744094e-16 0.0 0.0
-0.474226713180542 0.22375239431858063 3.2581450939178467 3.970208713764976 -15.432672992865209 127.22411457488293 -6.647828697675561e-07 2.588324281115397e-07 -2.2778780244683325 113.80951147050342 -36.27024911864783 -178.55395213568897 -2.6908387886768228e-06 -1.687446866478235e-06 109.17456953640514 0.0 0.0 0.0 -97.61426486284833 -32.72825775528966 173.1990461601429 1.2140338925618355e-07 3.705738442426284e-06 -103.57780816115034 9.54166404439055e-15 0.0 0.0 15.614341047433683 7.164761141477534 -76.52670511923326 11.676987337135069 -16.54017130899735 83.41385019013067 -7.951386703658791e-16 -5.310481014841597e-32 7.653209702271585e-15 -1.7850012171482614 4.4807230213465745 68.18902485872263 -5.365527488501085 -9.485628818151183 -58.7904495056472 -2.034534934257495e-32 7.951386703658792e-16 2.9320738469741797e-15
-0.4755015969276428 0.22247110307216644 3.2525439262390137 3.805176019144472 -14.914879049802721 127.6983222288046 1.526716228240553e-07 3.9396512210695635e-07 -1.4826616983751977 114.1580243747398 -36.60059604361515 -178.08349420827707 2.140907764311701e-06 -1.2282410673354612e-06 109.24929147433706 -7.951386703658794e-16 9.939233379573492e-17 -7.951386703658794e-16 -97.16927320300613 -25.406308557343046 173.95943626545983 -2.3336836722980623e-06 8.349768997982468e-07 -102.3841778219703 -3.1805546814635168e-15 1.7655625192200634e-31 -6.3611093629270335e-15 13.939363931786728 7.566101361075903 -69.79348500752118 10.191910277390395 -16.308448833142986 74.69934942910196 0.0 0.0 3.528427849748589e-15 -3.268633376065318 5.352905741654619 76.21087607261406 -7.049283950229657 -9.81498675254448 -65.03410060337615 -3.9756933518293955e-16 -5.862219302097867e-33 1.689669674527493e-15
-0.47807928919792175 0.2219087928533554 3.247931957244873 3.838708526407042 -14.868030032910793 127.8969247280676 -3.271500020159628e-07 -1.0275410176723791e-06 -1.9546280803697 113.97726993751975 -37.840457624530266 -178.32290343314446 3.206640501978852e-06 -3.2591371300141396e-06 108.1250280344623 7.951386703658792e-16 6.4108055298248995e-15 -7.951386703658792e-16 -99.88837356548088 -44.35453871911237 172.40375853586718 -8.348636725459576e-08 -9.213489830834759e-07 -109.35230693867562 3.1805546814635183e-15 -6.361109362927035e-15 6.361109362927035e-15 13.432246871280247 7.551686182707154 -68.61114801491303 9.696935328467827 -16.26045484383564 72.53197540220175 -1.1927080055488188e-15 2.5862732215137646e-32 -2.4848083448933726e-15 -3.604534669768666 5.202327495739504 77.60278299164551 -6.927581037227095 -9.33861797549069 -64.23510493456696 -7.951386703658792e-16 -7.951386703658792e-16 2.1866313435061676e-15
-0.47943559288978577 0.22133809328079224 3.244719982147217 4.006387083633692 -14.984071557997511 127.84788070400634 2.5694260940672924e-07 -6.670769582442852e-07 -2.0192752679430086 113.68753862710953 -39.26841438097924 -177.74766040333327 -2.2940385537822256e-06 -3.0561041662012338e-06 109.03664912904543 0.0 6.4108055298248995e-15 0.0 -97.72177019285921 -31.946492634137652 173.66294686048005 3.514395621939994e-06 1.4692460672016669e-06 -103.8711263378494 0.0 6.3611093629270335e-15 0.0 13.699269370406114 7.4941170724622745 -69.28522535644053 9.296818495016892 -16.326855263754283 71.76718427769123 -1.1927080055488192e-15 -9.931289170612858e-32 9.541664044390553e-15 -3.3979955889223707 5.1361689803372546 76.31416416511281 -6.391973816636176 -9.050152192628158 -61.02692882621702 -3.975693351829396e-16 -1.5902773407317584e-15 -2.981770013872047e-16
-0.4809356927871704 0.22105619311332703 3.2423689365386963 4.1578602102316475 -14.98711555295137 127.55787488102212 -2.0535948838842417e-06 9.213482994171624e-07 -1.9783561112523125 113.23968727043422 -39.87281534900548 -178.00977910884535 3.2849617159443617e-06 7.476381622114279e-07 107.41814589253593 8.896779882007351e-32 -6.410805529824903e-15 1.5902773407317588e-15 -97.74819719325595 -33.46232421992531 173.66535410039964 -2.353435651511149e-06 1.5494209985779652e-06 -104.3338631252266 3.1805546814635164e-15 -1.2722218725854065e-14 3.531125038440127e-31 13.393413128823145 7.7373863065088635 -68.03311128172744 9.282314790949247 -16.454592315423557 70.70059773246062 3.975693351829397e-16 -1.5902773407317584e-15 8.547740706433202e-15 -3.2933848193833333 5.167958606803143 75.6476329756969 -6.342326607827363 -8.830056779855681 -60.0117777884057 1.5902773407317584e-15 -1.5902773407317584e-15 2.782985346280577e-15
-0.4824362099170685 0.22006799280643463 3.239212989807129 4.224444934101744 -14.954596182458204 127.24510744639916 8.00883082645094e-07 -8.727581010502154e-07 -1.6500453475634065 113.12657618417413 -40.462104167977174 -178.2224518422386 -3.6890284351107806e-06 -1.5993405396844688e-06 106.67716667761349 -1.590277340731758e-15 -6.361109362927032e-15 -1.590277340731758e-15 -97.66713556901108 -33.287950298458014 173.76244016384965 -4.9826699522191435e-06 6.563011222216086e-06 -104.55955470067333 0.0 -6.361109362927033e-15 0.0 13.193524479630376 7.9554237377517545 -66.7065885140312 8.810535293112482 -16.848365606150605 68.54409944487169 -7.951386703658792e-16 -6.276023017540069e-32 9.044702375411875e-15 -2.8915798917991893 5.076344335267356 72.65371016654049 -5.784499240390712 -8.020421558725888 -54.52888680708539 -1.987846675914698e-15 3.793200724886855e-32 -2.1866313435061676e-15
